<svg xmlns="http://www.w3.org/2000/svg" width="23.65" height="18.394" viewBox="0 0 23.65 18.394">
  <g id="カメラのアイコン素材_6" data-name="カメラのアイコン素材 6" transform="translate(0 -56.89)">
    <path id="パス_774" data-name="パス 774" d="M196.715,224.828a2.9,2.9,0,1,0,2.871,2.9A2.884,2.884,0,0,0,196.715,224.828Z" transform="translate(-184.89 -160.181)" fill="#5d5d5d"/>
    <path id="パス_775" data-name="パス 775" d="M22.115,60.533H19.407a1.534,1.534,0,0,1-1.4-.914L17.2,57.8a1.536,1.536,0,0,0-1.4-.913H7.853a1.537,1.537,0,0,0-1.4.913l-.81,1.816a1.534,1.534,0,0,1-1.4.914H1.535A1.542,1.542,0,0,0,0,62.081V73.736a1.542,1.542,0,0,0,1.535,1.548h20.58a1.542,1.542,0,0,0,1.535-1.548V62.081A1.542,1.542,0,0,0,22.115,60.533ZM11.825,72.916a5.373,5.373,0,1,1,5.326-5.372A5.349,5.349,0,0,1,11.825,72.916Z" transform="translate(0)" fill="#5d5d5d"/>
  </g>
</svg>
