<svg xmlns="http://www.w3.org/2000/svg" xmlns:xlink="http://www.w3.org/1999/xlink" width="50" height="50" viewBox="0 0 50 50">
  <defs>
    <clipPath id="clip-path">
      <rect id="長方形_1083" data-name="長方形 1083" width="50" height="50" transform="translate(7856 1471)" fill="#f88809" stroke="#707070" stroke-width="1"/>
    </clipPath>
  </defs>
  <g id="マスクグループ_105" data-name="マスクグループ 105" transform="translate(-7856 -1471)" clip-path="url(#clip-path)">
    <path id="パス_3100" data-name="パス 3100" d="M68.237,39.093a45.939,45.939,0,0,0-9.484-5.97c-1.529-.5-3.549.846-4.233,2.674s-1.646,1.565-1.646,1.565-3.637-1.706-9.912-9.153-7.341-11.32-7.341-11.32-.1-.992,1.822-1.357,3.583-2.126,3.352-3.718A45.853,45.853,0,0,0,36.522,1.456C35.066-.709,31.822.059,31.084.5s-8.472,4.462-7.016,13.232A45.256,45.256,0,0,0,34.41,35.416,45.245,45.245,0,0,0,54.026,49.285c8.394,2.923,13.668-4.017,14.229-4.671S70.123,40.894,68.237,39.093Z" transform="translate(7834.972 1471)" fill="#f88809"/>
  </g>
</svg>
