<svg xmlns="http://www.w3.org/2000/svg" width="20.437" height="19.286" viewBox="0 0 20.437 19.286">
  <g id="グループ_312" data-name="グループ 312" transform="translate(695.409 -73.204)">
    <path id="パス_759" data-name="パス 759" d="M-686.951,85.059V84.52h-5.157a1.821,1.821,0,0,0-1.821,1.821,1.822,1.822,0,0,0,1.821,1.823h2.742a2.74,2.74,0,0,1,1.617.411,4.419,4.419,0,0,1,1.19,1.355l0,0,.011.018,0,.005a5.667,5.667,0,0,0,4.726,2.535,5.672,5.672,0,0,0,5.67-5.672V81.544a1.822,1.822,0,0,0-1.821-1.823,1.822,1.822,0,0,0-1.821,1.823l.158.38.38.158.38-.158.158-.38v-.764a1.823,1.823,0,0,0-1.821-1.823,1.823,1.823,0,0,0-1.821,1.823l.156.38.382.158.38-.158.158-.38a1.826,1.826,0,0,0-1.823-1.823,1.823,1.823,0,0,0-1.821,1.823l.158.38.38.158.38-.158.158-.38V75.025a1.822,1.822,0,0,0-1.821-1.821,1.82,1.82,0,0,0-1.821,1.821V85.059h.538v0h.538V75.025a.746.746,0,0,1,.745-.745.746.746,0,0,1,.745.745v5.754l.158.38.38.158.38-.158.158-.38a.748.748,0,0,1,.744-.746.75.75,0,0,1,.747.746l.156.38.382.158.38-.158.158-.38a.748.748,0,0,1,.745-.746.748.748,0,0,1,.745.746v.764l.158.38.38.158.38-.158.158-.38a.748.748,0,0,1,.745-.746.747.747,0,0,1,.745.746v5.275a4.6,4.6,0,0,1-4.593,4.6,4.588,4.588,0,0,1-3.829-2.056l-.449.3.45-.294-.011-.018,0,0a5.478,5.478,0,0,0-1.5-1.669,3.838,3.838,0,0,0-2.214-.59h-2.742a.747.747,0,0,1-.745-.746.745.745,0,0,1,.745-.745h5.157l.38-.158.158-.38Z" transform="translate(1.176 0)" fill="#fff"/>
    <path id="パス_760" data-name="パス 760" d="M-687.476,77.664v.764a.539.539,0,0,0,.538.538.54.54,0,0,0,.538-.538v-.764a.539.539,0,0,0-.538-.538.538.538,0,0,0-.538.538" transform="translate(6.301 3.115)" fill="#fff"/>
    <path id="パス_761" data-name="パス 761" d="M-688.9,77.664v.764a.54.54,0,0,0,.54.538.538.538,0,0,0,.536-.538v-.764a.537.537,0,0,0-.536-.538.539.539,0,0,0-.54.538" transform="translate(5.168 3.115)" fill="#fff"/>
    <path id="パス_762" data-name="パス 762" d="M-693.773,80.787a4.55,4.55,0,0,1,4.543-4.545V75.166a5.622,5.622,0,0,0-5.62,5.621Z" transform="translate(0.445 1.558)" fill="#fff"/>
    <path id="パス_763" data-name="パス 763" d="M-692.217,77.743l-1.6,2.764-1.6-2.764Z" transform="translate(0 3.605)" fill="#fff"/>
    <path id="パス_764" data-name="パス 764" d="M-692.273,77.737l2.764-1.6-2.764-1.6Z" transform="translate(2.491 1.064)" fill="#fff"/>
  </g>
</svg>
