<svg xmlns="http://www.w3.org/2000/svg" width="18.638" height="16.79" viewBox="0 0 18.638 16.79">
  <g id="グループ_75" data-name="グループ 75" transform="translate(-2754 -818)">
    <g id="グループ_74" data-name="グループ 74" transform="translate(1977.323 445.683)">
      <path id="パス_52" data-name="パス 52" d="M789.929,373a4.625,4.625,0,0,1,3.175,7.93L786,388.12l-7.25-7.335h.016a4.612,4.612,0,0,1,3.3-7.784A4.634,4.634,0,0,1,786,375.274,4.636,4.636,0,0,1,789.929,373Z" fill="#c03"/>
      <path id="heart001_-_E034" data-name="heart001 - E034" d="M789.929,372.317A5.441,5.441,0,0,0,786,374.023a5.437,5.437,0,0,0-3.933-1.706,5.349,5.349,0,0,0-5.385,5.312v.011a5.384,5.384,0,0,0,1.485,3.712h.016L786,389.107l7.68-7.613a5.26,5.26,0,0,0,1.638-3.854,5.348,5.348,0,0,0-5.374-5.323Zm0,.821a4.534,4.534,0,0,1,4.565,4.5,4.434,4.434,0,0,1-1.39,3.27L786,387.953l-7.25-7.187h.016a4.421,4.421,0,0,1-1.264-3.127,4.535,4.535,0,0,1,4.565-4.5A4.652,4.652,0,0,1,786,375.366,4.655,4.655,0,0,1,789.929,373.138Z" fill="#585858"/>
    </g>
  </g>
</svg>
