<svg xmlns="http://www.w3.org/2000/svg" width="30" height="30" viewBox="0 0 30 30">
  <g id="グループ_93" data-name="グループ 93" transform="translate(-15 -332)">
    <circle id="楕円形_7" data-name="楕円形 7" cx="15" cy="15" r="15" transform="translate(15 332)" fill="#c03"/>
    <path id="パス_149" data-name="パス 149" d="M12.556,10.871A6.852,6.852,0,1,0,11.032,12.4l.53.529L13.085,11.4Zm-2.03-.506a4.974,4.974,0,1,1,0-7.034A4.974,4.974,0,0,1,10.526,10.365Z" transform="translate(20.745 337.994)" fill="#fff"/>
    <path id="パス_150" data-name="パス 150" d="M322.294,319.774l-5.146-4.6-1.787,1.787,4.6,5.146c.467.6,1.309.516,2.065-.24S322.9,320.242,322.294,319.774Z" transform="translate(-282.717 34.554)" fill="#fff"/>
  </g>
</svg>