<svg xmlns="http://www.w3.org/2000/svg" width="57.078" height="19.473" viewBox="0 0 57.078 19.473"><g transform="translate(-115 -302.77)"><path d="M118.222,352.366h-1.475A1.753,1.753,0,0,0,115,354.114v6.044a1.753,1.753,0,0,0,1.748,1.748h2.018Z" transform="translate(0 -44.63)" fill="#fff"/><path d="M649.414,352.366h-1.475l-.543,9.54h2.018a1.753,1.753,0,0,0,1.748-1.748v-6.044A1.753,1.753,0,0,0,649.414,352.366Z" transform="translate(-479.083 -44.63)" fill="#fff"/><g transform="translate(121.609 302.77)"><path d="M457.1,368.154H455.81v2.028h1.307a1,1,0,0,0,1.116-1.068C458.232,368.522,457.8,368.154,457.1,368.154Z" transform="translate(-428.291 -361.607)" fill="#fff"/><path d="M220.493,302.77H185.369a4.333,4.333,0,0,0-4.362,4.6l.54,10.279a4.919,4.919,0,0,0,4.845,4.6h13.245l3.294-4.01,3.294,4.01H219.47a4.919,4.919,0,0,0,4.845-4.6l.54-10.279A4.333,4.333,0,0,0,220.493,302.77Zm-23.117,14.042h-2.4l-2.871-9.487h2.4l1.675,5.535,1.675-5.535h2.4Zm13.729,0-1.647-3.483h-.949v3.483h-2.315v-9.487h4.028a2.827,2.827,0,0,1,3.109,2.846c0,1.643-.493,2.608-1.549,3.026l1.976,3.616Z" transform="translate(-181.001 -302.77)" fill="#fff"/></g></g></svg>