<svg xmlns="http://www.w3.org/2000/svg" width="18.638" height="16.79" viewBox="0 0 18.638 16.79">
  <path id="heart001_-_E034" data-name="heart001 - E034" d="M-4.448-45.96a5.439,5.439,0,0,0-3.933,1.706,5.439,5.439,0,0,0-3.933-1.706A5.349,5.349,0,0,0-17.7-40.637a5.382,5.382,0,0,0,1.485,3.712h.016l7.819,7.755L-.7-36.783A5.264,5.264,0,0,0,.938-40.637,5.349,5.349,0,0,0-4.448-45.96Zm0,.821a4.534,4.534,0,0,1,4.565,4.5,4.439,4.439,0,0,1-1.39,3.27l-7.108,7.045-7.25-7.187h.016a4.42,4.42,0,0,1-1.264-3.127,4.534,4.534,0,0,1,4.565-4.5,4.653,4.653,0,0,1,3.933,2.227A4.653,4.653,0,0,1-4.448-45.139Z" transform="translate(17.7 45.96)" fill="#585858"/>
</svg>
