<svg xmlns="http://www.w3.org/2000/svg" xmlns:xlink="http://www.w3.org/1999/xlink" width="50" height="50" viewBox="0 0 50 50">
  <defs>
    <clipPath id="clip-path">
      <rect id="長方形_1068" data-name="長方形 1068" width="50" height="50" transform="translate(7424 1471)" fill="#fff"/>
    </clipPath>
  </defs>
  <g id="マスクグループ_103" data-name="マスクグループ 103" transform="translate(-7424 -1471)" clip-path="url(#clip-path)">
    <path id="icon_mail_thin" d="M101.81,47H54.19A1.3,1.3,0,0,0,53,48.389V87.278a1.3,1.3,0,0,0,1.19,1.389H101.81A1.3,1.3,0,0,0,103,87.278V48.389A1.3,1.3,0,0,0,101.81,47Zm-3.1,2.778L78,71.519,57.293,49.778ZM55.381,85.889V51.508L77.2,74.422a1.072,1.072,0,0,0,1.6,0l21.821-22.914V85.889Z" transform="translate(7371 1428.286)" fill="#fff"/>
  </g>
</svg>
