<svg xmlns="http://www.w3.org/2000/svg" width="13" height="13" viewBox="0 0 13 13">
  <g id="グループ_3796" data-name="グループ 3796" transform="translate(-2574 -3701)">
    <rect id="長方形_3516" data-name="長方形 3516" width="13" height="13" transform="translate(2574 3701)" fill="none"/>
    <g id="グループ_3794" data-name="グループ 3794" transform="translate(57.3 -11)">
      <path id="パス_1312" data-name="パス 1312" d="M9.2,2A5.171,5.171,0,0,0,4,7.33Q4,10.567,9.2,15q5.2-4.436,5.2-7.67A5.171,5.171,0,0,0,9.2,2Z" transform="translate(2514 3710)" fill="#666"/>
      <path id="exclamation" d="M17.95,5.265a.975.975,0,1,1-.975-.975A.976.976,0,0,1,17.95,5.265ZM16.113.307l.166,2.99a.292.292,0,0,0,.292.278h.809a.292.292,0,0,0,.292-.278l.166-2.99A.292.292,0,0,0,17.545,0H16.4A.292.292,0,0,0,16.113.307Z" transform="translate(2506.225 3714.405)" fill="#fff"/>
    </g>
  </g>
</svg>
