<svg xmlns="http://www.w3.org/2000/svg" width="41.496" height="14.161" viewBox="0 0 41.496 14.161">
  <g id="icon_vr" transform="translate(-115 -302.77)">
    <path id="パス_753" data-name="パス 753" d="M117.342,352.366H116.27a1.274,1.274,0,0,0-1.27,1.271v4.394a1.274,1.274,0,0,0,1.271,1.271h1.467Z" transform="translate(0 -45.986)" fill="#5d5d5d"/>
    <path id="パス_754" data-name="パス 754" d="M648.863,352.366h-1.072L647.4,359.3h1.467a1.274,1.274,0,0,0,1.271-1.271v-4.394a1.274,1.274,0,0,0-1.271-1.271Z" transform="translate(-493.638 -45.986)" fill="#5d5d5d"/>
    <g id="グループ_296" data-name="グループ 296" transform="translate(119.803 302.77)">
      <path id="パス_755" data-name="パス 755" d="M456.748,368.154h-.938v1.474h.95a.727.727,0,0,0,.811-.776C457.571,368.422,457.257,368.154,456.748,368.154Z" transform="translate(-435.802 -363.394)" fill="#5d5d5d"/>
      <path id="パス_756" data-name="パス 756" d="M209.71,302.77H184.176A3.15,3.15,0,0,0,181,306.114l.393,7.473a3.576,3.576,0,0,0,3.522,3.344h9.629l2.395-2.915,2.395,2.915h9.629a3.576,3.576,0,0,0,3.522-3.344l.393-7.473a3.15,3.15,0,0,0-3.171-3.344ZM192.9,312.978H191.16l-2.087-6.9h1.745l1.218,4.024,1.218-4.024H195Zm9.981,0-1.2-2.532H201v2.532h-1.683v-6.9h2.928a2.055,2.055,0,0,1,2.26,2.069c0,1.195-.358,1.9-1.126,2.2l1.437,2.629Z" transform="translate(-180.999 -302.77)" fill="#5d5d5d"/>
    </g>
  </g>
</svg>
