<svg xmlns="http://www.w3.org/2000/svg" width="102" height="60.432" viewBox="0 0 102 60.432">
  <g id="グループ_3712" transform="translate(-307.7 -4427.1)">
    <path id="パス_912" d="M376.04,4480.237a9.411,9.411,0,0,0,4.276,6.294c-4.751,0-8.314-2.969-10.451-5.462-3.563.355-7.363.474-11.164.474-27.672,0-50-7.007-50-26.722,0-18.765,22.447-26.722,50-26.722s50,7.007,50,26.722C408.7,4468.718,395.161,4477.149,376.04,4480.237Z" transform="translate(0)" fill="#fff" stroke="#f88809" stroke-width="2"/>
    <g id="グループ_3707" transform="translate(321.935 4440.561)">
      <path id="パス_915" d="M5.226,11.276,6.413,10.8a5.289,5.289,0,0,1-.594-.95H8.076l-.475.356a5.273,5.273,0,0,1,1.306.95H8.789c0,.475.119.95.119,1.425V14.6a5.782,5.782,0,0,1-.119,1.425h4.869v5.226c0,.356-.119.475-.594.475a5.828,5.828,0,0,1-1.306-.119V16.62H4.751a6.713,6.713,0,0,1,0,1.544v2.969a5.8,5.8,0,0,1-.119,1.544H6.413v-.713H11.4a6.128,6.128,0,0,1,.238,1.306h1.069a3.959,3.959,0,0,0,2.019-.238,1.915,1.915,0,0,0,.713-1.544V12.938a10.24,10.24,0,0,1,.119-2.019c-.594,0-1.188.119-1.781.119H12.589l1.188-.475c-.238-.356-.356-.594-.594-.95h1.188a10.868,10.868,0,0,1,1.9.119V8.188a10.216,10.216,0,0,1-1.9.119H10.926c.238-.594.238-.594.475-.831L9.382,7A6.574,6.574,0,0,1,8.195,9.613V8.188a8.989,8.989,0,0,1-1.781.119H4.157c.119-.356.238-.475.356-.831L2.732,7A6.023,6.023,0,0,1,1.663,8.9,5.55,5.55,0,0,1,0,10.563a6.225,6.225,0,0,1,1.188,1.306v9.5a12.908,12.908,0,0,1-.119,2.138H3.088a11.523,11.523,0,0,1-.119-2.019V16.026H7.6a5.723,5.723,0,0,1,0-1.425V11.157H5.938Zm-2.375,0H2.019A6.89,6.89,0,0,0,3.207,9.85h.831l.713,1.425Zm7.6,0H9.026a9.064,9.064,0,0,0,.95-1.306h1.188c.238.475.594.95.831,1.425H10.451ZM6.532,17.926H9.976v.713H6.532Zm0,2.019H9.976v.713H6.532ZM2.969,12.463H5.938v.713H2.969Zm0,1.663H5.938v.713H2.969Zm7.6-1.663h3.088v.713H10.57Zm0,1.663h3.088v.713H10.57Zm14.252,3.563v1.188H19.834a10.216,10.216,0,0,1-1.9-.119v2.019a12.908,12.908,0,0,1,2.138-.119h4.751v1.188a8.989,8.989,0,0,1-.119,1.781h2.138a8.989,8.989,0,0,1-.119-1.781V20.658H31.71a12.908,12.908,0,0,1,2.138.119V18.758a10.216,10.216,0,0,1-1.9.119H26.841V17.689h5.582c0-.594-.119-1.188-.119-1.781V12.226a10.216,10.216,0,0,1,.119-1.9,9.6,9.6,0,0,1-1.9.119c.594-.831,1.188-1.663,1.663-2.494l-2.019-.713a16.03,16.03,0,0,1-1.781,3.088H21.734l1.306-.594a14.792,14.792,0,0,0-1.781-2.257l-1.781.713a9.52,9.52,0,0,1,1.544,2.257,7.841,7.841,0,0,1-1.663-.119c0,.594.119,1.306.119,1.9v3.682a8.989,8.989,0,0,1-.119,1.781h5.463Zm1.9-4.394V12.107h3.563v1.188Zm-1.9,0H21.378V12.107h3.444Zm1.9,2.85V14.838h3.563v1.306Zm-1.9,0H21.378V14.838h3.444Zm2.494-6.413a11.175,11.175,0,0,0-1.425-2.613l-1.781.475a11.967,11.967,0,0,1,1.425,2.732Z" transform="translate(0 1.314)" fill="#888"/>
      <path id="パス_917" d="M52.357,14.138a3.288,3.288,0,0,1-.119,1.069,6.92,6.92,0,0,1-2.257,4.038,9.376,9.376,0,0,1-2.732,1.663,6.919,6.919,0,0,1,1.306,1.781A9.67,9.67,0,0,0,53.07,18.77a10.082,10.082,0,0,0,1.425-4.513h3.444v1.069a16.294,16.294,0,0,1-.594,4.751c-.119.238-.356.356-.95.356a13.087,13.087,0,0,1-2.138-.238,6.243,6.243,0,0,1,.475,2.019,16.9,16.9,0,0,1,1.781.119c1.544,0,2.257-.238,2.613-1.069a25.446,25.446,0,0,0,.713-7.363V13.07c.713.713,1.425,1.306,2.138,1.9a10.764,10.764,0,0,1,1.306-1.9,14.341,14.341,0,0,1-4.869-5.107c-.238-.475-.475-.95-.713-1.544l-2.019.713.356.713a19.041,19.041,0,0,0,2.969,4.394H50.457a16.8,16.8,0,0,0,2.85-4.276,3.555,3.555,0,0,1,.475-.95L51.644,6.3a5.6,5.6,0,0,1-.713,1.781A14.681,14.681,0,0,1,46.3,13.188a3.883,3.883,0,0,1,1.306,1.781,11.973,11.973,0,0,0,2.257-2.019v1.306a6.274,6.274,0,0,1,1.544-.119Z" transform="translate(8.688 1.182)" fill="#888"/>
      <path id="パス_916" d="M41.357,23.4V0H38.388L31.5,2.375V5.938l5.7-1.781V23.278h4.157Z" transform="translate(5.911)" fill="#f88809"/>
    </g>
  </g>
</svg>
